<?xml version="1.0" encoding="UTF-8"?>
<svg id="Calque_1" data-name="Calque 1" xmlns="http://www.w3.org/2000/svg" viewBox="0 0 273.73 274.43">
  <defs>
    <style>
      .cls-1 {
        stroke-width: 6.97px;
      }

      .cls-1, .cls-2 {
        fill: none;
        stroke: #e84b1f;
        stroke-miterlimit: 10;
      }

      .cls-2 {
        stroke-width: 6.87px;
      }
    </style>
  </defs>
  <path class="cls-1" d="M213.03,81.05c15.73,19.97,25.12,45.17,25.12,72.56,0,64.8-52.53,117.33-117.33,117.33S3.48,218.41,3.48,153.61,56.02,36.28,120.82,36.28c27.54,0,52.86,9.49,72.87,25.37"/>
  <path class="cls-1" d="M186.61,107.47c9.62,13.31,15.29,29.66,15.29,47.34,0,44.68-36.22,80.89-80.89,80.89s-80.89-36.22-80.89-80.89,36.22-80.89,80.89-80.89c17.11,0,32.98,5.31,46.05,14.38"/>
  <path class="cls-1" d="M153.38,140.7c1.88,4.33,2.92,9.1,2.92,14.12,0,19.6-15.89,35.49-35.49,35.49s-35.49-15.89-35.49-35.49,15.89-35.49,35.49-35.49c4.52,0,8.83.84,12.81,2.38"/>
  <path class="cls-2" d="M106.05,101.72h126.35v11.76h-126.35c-2.33,0-4.22-1.89-4.22-4.22v-3.32c0-2.33,1.89-4.22,4.22-4.22Z" transform="translate(-27.13 149.68) rotate(-45)"/>
  <polygon class="cls-1" points="214.26 29.44 210.95 55.5 219.27 63.81 246.08 58.2 266.79 37.39 242.95 32.1 236.84 6.85 214.26 29.44"/>
</svg>