<?xml version="1.0" encoding="UTF-8"?>
<svg id="Calque_1" data-name="Calque 1" xmlns="http://www.w3.org/2000/svg" viewBox="0 0 282.75 275.35">
  <defs>
    <style>
      .cls-1 {
        stroke: #e84b1f;
        stroke-width: 10.92px;
      }

      .cls-1, .cls-2 {
        fill: #e84b1f;
        stroke-miterlimit: 10;
      }

      .cls-2 {
        stroke: #fff;
        stroke-width: 6.55px;
      }
    </style>
  </defs>
  <path class="cls-1" d="M225.42,73.08c-7.67,0-13.9-6.23-13.9-13.93v-17.19h-1.41v17.19c0,7.69-6.23,13.93-13.9,13.93h-40.15c-7.67,0-13.9-6.23-13.9-13.93v-17.19h-1.41v17.19c0,7.69-6.23,13.93-13.9,13.93h-40.15c-7.67,0-13.9-6.23-13.9-13.93v-17.19h-1.51v17.19c0,7.69-6.23,13.93-13.93,13.93H20.73v182.9c0,7.67,6.23,13.9,13.93,13.9h12.11V112.13c0-7.69,6.23-13.93,13.9-13.93h58.73c7.67,0,13.9,6.23,13.9,13.93v157.76h117.56c7.67,0,13.9-6.23,13.9-13.9V73.08h-39.34ZM238.75,234.53c0,7.67-6.23,13.9-13.93,13.9h-58.71c-7.69,0-13.93-6.23-13.93-13.9v-122.4c0-7.69,6.23-13.93,13.93-13.93h58.71c7.69,0,13.93,6.23,13.93,13.93v122.4Z"/>
  <path class="cls-2" d="M279.48,3.28v55.88c0,7.69-6.23,13.93-13.9,13.93h-40.15c-7.67,0-13.9-6.23-13.9-13.93v-17.19h-1.41v17.19c0,7.69-6.23,13.93-13.9,13.93h-40.15c-7.67,0-13.9-6.23-13.9-13.93v-17.19h-1.41v17.19c0,7.69-6.23,13.93-13.9,13.93h-40.15c-7.67,0-13.9-6.23-13.9-13.93v-17.19h-1.51v17.19c0,7.69-6.23,13.93-13.93,13.93H17.2c-7.69,0-13.93-6.23-13.93-13.93V3.28h276.2Z"/>
</svg>