<?xml version="1.0" encoding="UTF-8"?>
<svg id="Calque_1" data-name="Calque 1" xmlns="http://www.w3.org/2000/svg" viewBox="0 0 207.12 272.3">
  <defs>
    <style>
      .cls-1 {
        fill: #e84b1f;
        stroke: #e84b1f;
        stroke-miterlimit: 10;
        stroke-width: 3.21px;
      }
    </style>
  </defs>
  <path class="cls-1" d="M103.55,270.7c-.33,0-.66,0-.99-.02.43.01.87.02,1.3.02h-.31Z"/>
  <path class="cls-1" d="M205.51,161.14c0,58.99-43.38,107.08-97.73,109.46,34.46-1.97,61.84-32.62,61.84-70.14,0-15.51-4.68-29.85-12.62-41.48-.22-.33-.73-.14-.71.26,1.25,19.3-7.85,33.01-10.68,36.76-.23.31-.71.13-.69-.26.74-13.52-14.45-35.81-14.78-36.29t-.01-.02c-.64-1.09-1.27-2.17-1.86-3.24-5.29-9.44-8.56-17.54-10.44-24.45-5.39-19.7.53-29.62,3.27-32.92.26-.31-.08-.76-.45-.61-29.45,12.24-43.92,28.27-50.87,42.57-2.19,4.52-3.63,8.87-4.55,12.87-2.23,9.69-1.42,17.35-.89,20.52.06.4-.46.62-.7.29-2.12-2.89-6.9-10.39-7.74-20.21-.03-.35-.46-.5-.68-.23-10.17,12.38-16.33,28.64-16.33,46.44,0,38.18,28.35,69.26,63.67,70.22-55.86-.56-100.96-49.39-100.96-109.54,0-27.76,9.61-53.12,25.47-72.43.34-.42,1.02-.2,1.07.35,1.3,15.32,8.76,27.02,12.07,31.53.37.51,1.19.17,1.08-.46-.82-4.95-2.08-16.89,1.4-32,1.44-6.24,3.68-13.03,7.1-20.08C60.62,45.74,83.2,20.74,129.13,1.65c.58-.24,1.1.46.7.95-4.27,5.15-13.5,20.62-5.1,51.36,2.93,10.76,8.04,23.41,16.28,38.13.93,1.66,1.9,3.35,2.91,5.05t.02.03c.51.75,24.2,35.52,23.05,56.61-.04.6.72.89,1.08.41,4.4-5.86,18.61-27.24,16.66-57.35-.04-.62.76-.91,1.1-.4,12.38,18.14,19.68,40.5,19.68,64.7Z"/>
  <path class="cls-1" d="M107.61,270.61c-1.11.06-2.23.09-3.36.09h-.39c1.26,0,2.51-.03,3.75-.09Z"/>
</svg>