<?xml version="1.0" encoding="UTF-8"?>
<svg id="Calque_1" data-name="Calque 1" xmlns="http://www.w3.org/2000/svg" viewBox="0 0 266.38 278.38">
  <defs>
    <style>
      .cls-1 {
        fill: none;
        stroke: #e84b1f;
        stroke-miterlimit: 10;
        stroke-width: 5px;
      }
    </style>
  </defs>
  <path class="cls-1" d="M228.19,148.43v118.1c0,5.16-4.19,9.35-9.35,9.35h-40.17c-5.16,0-9.35-4.19-9.35-9.35v-68.7c0-5.16-4.19-9.35-9.35-9.35h-48.25c-5.16,0-9.35,4.19-9.35,9.35v68.7c0,5.16-4.19,9.35-9.35,9.35h-45.48c-5.16,0-9.35-4.19-9.35-9.35v-116.69c0-5.14-4.16-9.32-9.3-9.35l-16.97-.09c-8.36.05-12.58-10.06-6.66-15.98L127.25,5.25c3.64-3.66,9.58-3.66,13.22,0l44.98,47.23v-21.77c0-5.16,4.19-9.35,9.35-9.35h19.14c5.16,0,9.35,4.19,9.35,9.35v52.37l37.81,40c5.89,5.89,1.75,15.93-6.56,15.98l-17.03.03c-5.16,0-9.33,4.19-9.33,9.35Z"/>
</svg>