<?xml version="1.0" encoding="UTF-8"?>
<svg id="Calque_1" data-name="Calque 1" xmlns="http://www.w3.org/2000/svg" viewBox="0 0 279.84 279.84">
  <defs>
    <style>
      .cls-1 {
        fill: none;
        stroke: #e84b1f;
        stroke-miterlimit: 10;
        stroke-width: 8.19px;
      }

      .cls-2 {
        fill: #e84b1e;
      }
    </style>
  </defs>
  <path class="cls-1" d="M275.74,139.91c0,34.23-12.67,65.49-33.57,89.38-24.89,28.48-61.48,46.45-102.26,46.45s-74.44-16.57-99.2-43.08c-22.73-24.28-36.62-56.89-36.62-92.76C4.1,64.9,64.9,4.1,139.91,4.1s135.83,60.81,135.83,135.82Z"/>
  <circle class="cls-2" cx="139.92" cy="81.13" r="47.48"/>
  <path class="cls-2" d="M242.17,229.29c-24.89,28.48-61.48,46.45-102.26,46.45s-74.44-16.57-99.2-43.08c6.95-49.55,49.52-87.66,100.98-87.66,28.17,0,53.68,11.42,72.13,29.87,14.5,14.5,24.66,33.34,28.35,54.41Z"/>
</svg>