<?xml version="1.0" encoding="UTF-8"?>
<svg id="Calque_1" data-name="Calque 1" xmlns="http://www.w3.org/2000/svg" viewBox="0 0 282.52 273.12">
  <defs>
    <style>
      .cls-1 {
        fill: none;
        stroke: #e84b1f;
        stroke-miterlimit: 10;
        stroke-width: 11.75px;
      }
    </style>
  </defs>
  <path class="cls-1" d="M223.65,74.31c-7.52,0-13.63-6.11-13.63-13.65v-16.85h-1.39v16.85c0,7.54-6.11,13.65-13.63,13.65h-39.36c-7.52,0-13.63-6.11-13.63-13.65v-16.85h-1.39v16.85c0,7.54-6.11,13.65-13.63,13.65h-39.36c-7.52,0-13.63-6.11-13.63-13.65v-16.85h-1.48v16.85c0,7.54-6.11,13.65-13.65,13.65H22.98v179.31c0,7.52,6.11,13.63,13.65,13.63h11.87V112.59c0-7.54,6.11-13.65,13.63-13.65h57.58c7.52,0,13.63,6.11,13.63,13.65v154.65h115.24c7.52,0,13.63-6.11,13.63-13.63V74.31h-38.56ZM236.72,232.58c0,7.52-6.11,13.63-13.65,13.63h-57.55c-7.54,0-13.65-6.11-13.65-13.63v-119.99c0-7.54,6.11-13.65,13.65-13.65h57.55c7.54,0,13.65,6.11,13.65,13.65v119.99Z"/>
  <path class="cls-1" d="M276.64,5.88v54.78c0,7.54-6.11,13.65-13.63,13.65h-39.36c-7.52,0-13.63-6.11-13.63-13.65v-16.85h-1.39v16.85c0,7.54-6.11,13.65-13.63,13.65h-39.36c-7.52,0-13.63-6.11-13.63-13.65v-16.85h-1.39v16.85c0,7.54-6.11,13.65-13.63,13.65h-39.36c-7.52,0-13.63-6.11-13.63-13.65v-16.85h-1.48v16.85c0,7.54-6.11,13.65-13.65,13.65H19.53c-7.54,0-13.65-6.11-13.65-13.65V5.88h270.77Z"/>
</svg>