<?xml version="1.0" encoding="UTF-8"?>
<svg id="Calque_1" data-name="Calque 1" xmlns="http://www.w3.org/2000/svg" viewBox="0 0 271.77 272.49">
  <defs>
    <style>
      .cls-1 {
        fill: none;
        stroke-width: 6.97px;
      }

      .cls-1, .cls-2 {
        stroke: #e84b1f;
        stroke-miterlimit: 10;
      }

      .cls-2 {
        stroke-width: 5px;
      }

      .cls-2, .cls-3 {
        fill: #e84b1e;
      }
    </style>
  </defs>
  <path class="cls-1" d="M213.03,79.12c15.73,19.97,25.12,45.17,25.12,72.56,0,64.8-52.53,117.33-117.33,117.33S3.48,216.48,3.48,151.68,56.02,34.34,120.82,34.34c27.54,0,52.86,9.49,72.87,25.37"/>
  <path class="cls-1" d="M186.61,105.54c9.62,13.31,15.29,29.66,15.29,47.34,0,44.68-36.22,80.89-80.89,80.89s-80.89-36.22-80.89-80.89,36.22-80.89,80.89-80.89c17.11,0,32.98,5.31,46.05,14.38"/>
  <path class="cls-1" d="M153.38,138.76c1.88,4.33,2.92,9.1,2.92,14.12,0,19.6-15.89,35.49-35.49,35.49s-35.49-15.89-35.49-35.49,15.89-35.49,35.49-35.49c4.52,0,8.83.84,12.81,2.38"/>
  <path class="cls-2" d="M106.05,99.78h126.35v11.76h-126.35c-2.33,0-4.22-1.89-4.22-4.22v-3.32c0-2.33,1.89-4.22,4.22-4.22Z" transform="translate(-25.77 149.11) rotate(-45)"/>
  <polygon class="cls-2" points="214.26 27.5 210.95 53.56 219.27 61.88 246.08 56.26 266.79 35.46 242.95 30.17 236.84 4.92 214.26 27.5"/>
  <rect class="cls-3" x="82.06" y="113.93" width="77.91" height="77.91" rx="38.95" ry="38.95"/>
</svg>