<?xml version="1.0" encoding="UTF-8"?>
<svg id="Calque_1" data-name="Calque 1" xmlns="http://www.w3.org/2000/svg" viewBox="0 0 280.11 280.11">
  <defs>
    <style>
      .cls-1 {
        fill: #fff;
        stroke: #e84b1f;
        stroke-miterlimit: 10;
        stroke-width: 8.2px;
      }
    </style>
  </defs>
  <path class="cls-1" d="M140.04,4.1C64.96,4.1,4.1,64.96,4.1,140.04c0,35.9,13.91,68.54,36.66,92.84,6.95-49.6,49.56-87.74,101.08-87.74,28.19,0,53.73,11.43,72.2,29.9,14.51,14.51,24.68,33.38,28.37,54.47,20.93-23.91,33.6-55.2,33.6-89.47,0-75.08-60.88-135.94-135.96-135.94ZM140.04,128.73c-26.24,0-47.51-21.27-47.51-47.51s21.27-47.53,47.51-47.53,47.53,21.27,47.53,47.53-21.27,47.51-47.53,47.51Z"/>
  <path class="cls-1" d="M92.53,81.22c0-26.26,21.27-47.53,47.51-47.53s47.53,21.27,47.53,47.53-21.27,47.51-47.53,47.51-47.51-21.27-47.51-47.51Z"/>
  <path class="cls-1" d="M242.4,229.51c-24.91,28.5-61.54,46.5-102.36,46.5s-74.51-16.58-99.29-43.12c6.95-49.6,49.56-87.74,101.08-87.74,28.19,0,53.73,11.43,72.2,29.9,14.51,14.51,24.68,33.38,28.37,54.47Z"/>
  <path class="cls-1" d="M187.57,81.22c0,26.24-21.27,47.51-47.53,47.51s-47.51-21.27-47.51-47.51,21.27-47.53,47.51-47.53,47.53,21.27,47.53,47.53Z"/>
  <path class="cls-1" d="M242.4,229.51c-24.91,28.5-61.54,46.5-102.36,46.5s-74.51-16.58-99.29-43.12c6.95-49.6,49.56-87.74,101.08-87.74,28.19,0,53.73,11.43,72.2,29.9,14.51,14.51,24.68,33.38,28.37,54.47Z"/>
</svg>