<?xml version="1.0" encoding="UTF-8"?>
<svg id="Calque_1" data-name="Calque 1" xmlns="http://www.w3.org/2000/svg" viewBox="0 0 37.63 31.61">
  <defs>
    <style>
      .cls-1 {
        fill: none;
        stroke: #e84b1e;
        stroke-miterlimit: 10;
        stroke-width: 2px;
      }

      .cls-2 {
        fill: #e84b1e;
      }
    </style>
  </defs>
  <path class="cls-1" d="M36.63,13.87c0,3.55-1.44,6.77-3.77,9.1-2.33,2.33-5.54,3.77-9.1,3.77h-9.91c-.69,0-1.37.21-1.94.61l-4.61,3.22c-.17.12-.4-.03-.36-.23l.52-2.95c.22-1.21-.28-2.44-1.27-3.18-3.16-2.34-5.2-6.1-5.2-10.34,0-3.55,1.44-6.77,3.77-9.1,2.33-2.33,5.55-3.77,9.1-3.77h9.9c7.11,0,12.87,5.76,12.87,12.87Z"/>
  <rect class="cls-2" x="10.6" y="12.36" width="3.14" height="3.14" rx="1.57" ry="1.57"/>
  <rect class="cls-2" x="17.5" y="12.36" width="3.14" height="3.14" rx="1.57" ry="1.57"/>
  <rect class="cls-2" x="24.2" y="12.36" width="3.14" height="3.14" rx="1.57" ry="1.57"/>
</svg>